<svg width="1925" height="1112" viewBox="0 0 1925 1112" fill="none" xmlns="http://www.w3.org/2000/svg">
    <circle cx="1752.5" cy="428.5" r="0.5" fill="#D9D9D9" fill-opacity="0.3"/>
    <circle cx="1719.5" cy="642.5" r="0.5" fill="#D9D9D9" fill-opacity="0.3"/>
    <circle cx="1892.5" cy="363.5" r="0.5" fill="#D9D9D9" fill-opacity="0.3"/>
    <ellipse cx="1745.5" cy="231" rx="1.5" ry="2" fill="#D9D9D9" fill-opacity="0.3"/>
    <circle cx="1540.5" cy="182.5" r="1.5" fill="#D9D9D9" fill-opacity="0.3"/>
    <circle cx="1705.5" cy="85.5" r="1.5" fill="#D9D9D9" fill-opacity="0.3"/>
    <circle cx="1625.5" cy="643.5" r="0.5" fill="#D9D9D9" fill-opacity="0.3"/>
    <circle cx="1673" cy="444" r="1" fill="#D9D9D9" fill-opacity="0.3"/>
    <circle cx="1041" cy="65" r="1" fill="#D9D9D9" fill-opacity="0.3"/>
    <circle cx="1007.5" cy="278.5" r="0.5" fill="#D9D9D9" fill-opacity="0.3"/>
    <circle cx="961.5" cy="623.5" r="0.5" fill="#D9D9D9" fill-opacity="0.3"/>
    <circle cx="1101.5" cy="558.5" r="0.5" fill="#D9D9D9" fill-opacity="0.3"/>
    <circle cx="953.5" cy="424.5" r="0.5" fill="#D9D9D9" fill-opacity="0.3"/>
    <circle cx="913.5" cy="279.5" r="0.5" fill="#D9D9D9" fill-opacity="0.3"/>
    <circle cx="1712.5" cy="317.5" r="1.5" fill="#D9D9D9" fill-opacity="0.3"/>
    <circle cx="1532.5" cy="237.5" r="1.5" fill="#D9D9D9" fill-opacity="0.3"/>
    <circle cx="1498.5" cy="450.5" r="0.5" fill="#D9D9D9" fill-opacity="0.3"/>
    <circle cx="1672.5" cy="172.5" r="1.5" fill="#D9D9D9" fill-opacity="0.3"/>
    <circle cx="1524.5" cy="38.5" r="1.5" fill="#D9D9D9" fill-opacity="0.3"/>
    <circle cx="1444.5" cy="596.5" r="0.5" fill="#D9D9D9" fill-opacity="0.3"/>
    <ellipse cx="1239.5" cy="548" rx="0.5" ry="1" fill="#D9D9D9" fill-opacity="0.3"/>
    <circle cx="1404.5" cy="451.5" r="0.5" fill="#D9D9D9" fill-opacity="0.3"/>
    <circle cx="1875.5" cy="340.5" r="0.5" fill="#D9D9D9" fill-opacity="0.3"/>
    <circle cx="1842.5" cy="554.5" r="0.5" fill="#D9D9D9" fill-opacity="0.3"/>
    <circle cx="1868" cy="142" r="1" fill="#D9D9D9" fill-opacity="0.3"/>
    <circle cx="1663.5" cy="94.5" r="1.5" fill="#D9D9D9" fill-opacity="0.3"/>
    <circle cx="1346.5" cy="419.5" r="0.5" fill="#D9D9D9" fill-opacity="0.3"/>
    <circle cx="1167.5" cy="340.5" r="1.5" fill="#D9D9D9" fill-opacity="0.3"/>
    <circle cx="1133.5" cy="553.5" r="0.5" fill="#D9D9D9" fill-opacity="0.3"/>
    <circle cx="1307.5" cy="275.5" r="1.5" fill="#D9D9D9" fill-opacity="0.3"/>
    <circle cx="1159.5" cy="141.5" r="1.5" fill="#D9D9D9" fill-opacity="0.3"/>
    <circle cx="954" cy="93" r="1" fill="#D9D9D9" fill-opacity="0.3"/>
    <circle cx="1039.5" cy="554.5" r="0.5" fill="#D9D9D9" fill-opacity="0.3"/>
    <circle cx="1044.5" cy="642.5" r="0.5" fill="#D9D9D9" fill-opacity="0.3"/>
    <circle cx="1752.5" cy="1041.5" r="0.5" fill="#D9D9D9" fill-opacity="0.3"/>
    <circle cx="1892.5" cy="977.5" r="0.5" fill="#D9D9D9" fill-opacity="0.3"/>
    <circle cx="1745.5" cy="844.5" r="1.5" fill="#D9D9D9" fill-opacity="0.3"/>
    <ellipse cx="1540.5" cy="796" rx="1.5" ry="2" fill="#D9D9D9" fill-opacity="0.3"/>
    <circle cx="1705.5" cy="699.5" r="1.5" fill="#D9D9D9" fill-opacity="0.3"/>
    <circle cx="1041" cy="678" r="1" fill="#D9D9D9" fill-opacity="0.3"/>
    <circle cx="1007.5" cy="891.5" r="0.5" fill="#D9D9D9" fill-opacity="0.3"/>
    <circle cx="953.5" cy="1037.5" r="0.5" fill="#D9D9D9" fill-opacity="0.3"/>
    <circle cx="913.5" cy="892.5" r="0.5" fill="#D9D9D9" fill-opacity="0.3"/>
    <circle cx="1712.5" cy="930.5" r="1.5" fill="#D9D9D9" fill-opacity="0.3"/>
    <circle cx="1532.5" cy="850.5" r="1.5" fill="#D9D9D9" fill-opacity="0.3"/>
    <circle cx="1672.5" cy="785.5" r="1.5" fill="#D9D9D9" fill-opacity="0.3"/>
    <circle cx="1524.5" cy="651.5" r="1.5" fill="#D9D9D9" fill-opacity="0.3"/>
    <circle cx="1875.5" cy="953.5" r="0.5" fill="#D9D9D9" fill-opacity="0.3"/>
    <circle cx="1868" cy="755" r="1" fill="#D9D9D9" fill-opacity="0.3"/>
    <circle cx="1663.5" cy="707.5" r="1.5" fill="#D9D9D9" fill-opacity="0.3"/>
    <circle cx="1346.5" cy="1032.5" r="0.5" fill="#D9D9D9" fill-opacity="0.3"/>
    <circle cx="1167.5" cy="953.5" r="1.5" fill="#D9D9D9" fill-opacity="0.3"/>
    <circle cx="1307.5" cy="888.5" r="1.5" fill="#D9D9D9" fill-opacity="0.3"/>
    <circle cx="1159.5" cy="754.5" r="1.5" fill="#D9D9D9" fill-opacity="0.3"/>
    <circle cx="954" cy="706" r="1" fill="#D9D9D9" fill-opacity="0.3"/>
    <circle cx="1701.5" cy="769.5" r="0.5" fill="#D9D9D9" fill-opacity="0.3"/>
    <ellipse cx="1521.5" cy="689" rx="0.5" ry="1" fill="#D9D9D9" fill-opacity="0.3"/>
    <circle cx="1488.5" cy="903.5" r="0.5" fill="#D9D9D9" fill-opacity="0.3"/>
    <circle cx="1661.5" cy="624.5" r="0.5" fill="#D9D9D9" fill-opacity="0.3"/>
    <circle cx="1514.5" cy="491.5" r="1.5" fill="#D9D9D9" fill-opacity="0.3"/>
    <ellipse cx="1309.5" cy="443" rx="1.5" ry="2" fill="#D9D9D9" fill-opacity="0.3"/>
    <circle cx="1474.5" cy="346.5" r="1.5" fill="#D9D9D9" fill-opacity="0.3"/>
    <circle cx="1394.5" cy="904.5" r="0.5" fill="#D9D9D9" fill-opacity="0.3"/>
    <circle cx="1442" cy="704" r="1" fill="#D9D9D9" fill-opacity="0.3"/>
    <circle cx="810" cy="325" r="1" fill="#D9D9D9" fill-opacity="0.3"/>
    <circle cx="776.5" cy="538.5" r="0.5" fill="#D9D9D9" fill-opacity="0.3"/>
    <circle cx="730.5" cy="883.5" r="0.5" fill="#D9D9D9" fill-opacity="0.3"/>
    <circle cx="870.5" cy="818.5" r="0.5" fill="#D9D9D9" fill-opacity="0.3"/>
    <circle cx="722.5" cy="684.5" r="0.5" fill="#D9D9D9" fill-opacity="0.3"/>
    <circle cx="682.5" cy="539.5" r="0.5" fill="#D9D9D9" fill-opacity="0.3"/>
    <circle cx="1481.5" cy="577.5" r="1.5" fill="#D9D9D9" fill-opacity="0.3"/>
    <circle cx="1301.5" cy="497.5" r="1.5" fill="#D9D9D9" fill-opacity="0.3"/>
    <circle cx="1267.5" cy="710.5" r="0.5" fill="#D9D9D9" fill-opacity="0.3"/>
    <circle cx="1441.5" cy="432.5" r="1.5" fill="#D9D9D9" fill-opacity="0.3"/>
    <ellipse cx="1293.5" cy="299" rx="1.5" ry="2" fill="#D9D9D9" fill-opacity="0.3"/>
    <circle cx="1213.5" cy="856.5" r="0.5" fill="#D9D9D9" fill-opacity="0.3"/>
    <circle cx="1008.5" cy="808.5" r="0.5" fill="#D9D9D9" fill-opacity="0.3"/>
    <circle cx="1173.5" cy="711.5" r="0.5" fill="#D9D9D9" fill-opacity="0.3"/>
    <circle cx="1824.5" cy="680.5" r="0.5" fill="#D9D9D9" fill-opacity="0.3"/>
    <circle cx="1644.5" cy="600.5" r="0.5" fill="#D9D9D9" fill-opacity="0.3"/>
    <circle cx="1611.5" cy="814.5" r="0.5" fill="#D9D9D9" fill-opacity="0.3"/>
    <circle cx="1784.5" cy="535.5" r="0.5" fill="#D9D9D9" fill-opacity="0.3"/>
    <circle cx="1637" cy="402" r="1" fill="#D9D9D9" fill-opacity="0.3"/>
    <circle cx="1432.5" cy="354.5" r="1.5" fill="#D9D9D9" fill-opacity="0.3"/>
    <circle cx="1843" cy="375" r="1" fill="#D9D9D9" fill-opacity="0.3"/>
    <circle cx="1115.5" cy="679.5" r="0.5" fill="#D9D9D9" fill-opacity="0.3"/>
    <circle cx="936.5" cy="600.5" r="1.5" fill="#D9D9D9" fill-opacity="0.3"/>
    <circle cx="902.5" cy="813.5" r="0.5" fill="#D9D9D9" fill-opacity="0.3"/>
    <circle cx="1076.5" cy="535.5" r="1.5" fill="#D9D9D9" fill-opacity="0.3"/>
    <circle cx="928.5" cy="401.5" r="1.5" fill="#D9D9D9" fill-opacity="0.3"/>
    <circle cx="723" cy="353" r="1" fill="#D9D9D9" fill-opacity="0.3"/>
    <circle cx="808.5" cy="814.5" r="0.5" fill="#D9D9D9" fill-opacity="0.3"/>
    <circle cx="1832.5" cy="492.5" r="0.5" fill="#D9D9D9" fill-opacity="0.3"/>
    <circle cx="813.5" cy="903.5" r="0.5" fill="#D9D9D9" fill-opacity="0.3"/>
    <circle cx="1017.5" cy="538.5" r="0.5" fill="#D9D9D9" fill-opacity="0.3"/>
    <circle cx="837.5" cy="458.5" r="0.5" fill="#D9D9D9" fill-opacity="0.3"/>
    <circle cx="804.5" cy="672.5" r="0.5" fill="#D9D9D9" fill-opacity="0.3"/>
    <circle cx="977.5" cy="393.5" r="0.5" fill="#D9D9D9" fill-opacity="0.3"/>
    <circle cx="830.5" cy="260.5" r="1.5" fill="#D9D9D9" fill-opacity="0.3"/>
    <circle cx="625.5" cy="212.5" r="1.5" fill="#D9D9D9" fill-opacity="0.3"/>
    <circle cx="790.5" cy="115.5" r="1.5" fill="#D9D9D9" fill-opacity="0.3"/>
    <circle cx="710.5" cy="673.5" r="0.5" fill="#D9D9D9" fill-opacity="0.3"/>
    <circle cx="758" cy="473" r="1" fill="#D9D9D9" fill-opacity="0.3"/>
    <circle cx="126" cy="95" r="1" fill="#D9D9D9" fill-opacity="0.3"/>
    <circle cx="92.5" cy="308.5" r="0.5" fill="#D9D9D9" fill-opacity="0.3"/>
    <circle cx="46.5" cy="652.5" r="0.5" fill="#D9D9D9" fill-opacity="0.3"/>
    <circle cx="186.5" cy="588.5" r="0.5" fill="#D9D9D9" fill-opacity="0.3"/>
    <circle cx="38.5" cy="454.5" r="0.5" fill="#D9D9D9" fill-opacity="0.3"/>
    <circle cx="797.5" cy="347.5" r="1.5" fill="#D9D9D9" fill-opacity="0.3"/>
    <circle cx="617.5" cy="267.5" r="1.5" fill="#D9D9D9" fill-opacity="0.3"/>
    <circle cx="583.5" cy="480.5" r="0.5" fill="#D9D9D9" fill-opacity="0.3"/>
    <circle cx="757.5" cy="202.5" r="1.5" fill="#D9D9D9" fill-opacity="0.3"/>
    <circle cx="609.5" cy="68.5" r="1.5" fill="#D9D9D9" fill-opacity="0.3"/>
    <circle cx="529.5" cy="626.5" r="0.5" fill="#D9D9D9" fill-opacity="0.3"/>
    <circle cx="324.5" cy="577.5" r="0.5" fill="#D9D9D9" fill-opacity="0.3"/>
    <circle cx="489.5" cy="481.5" r="0.5" fill="#D9D9D9" fill-opacity="0.3"/>
    <circle cx="1140.5" cy="450.5" r="0.5" fill="#D9D9D9" fill-opacity="0.3"/>
    <circle cx="960.5" cy="369.5" r="0.5" fill="#D9D9D9" fill-opacity="0.3"/>
    <circle cx="927.5" cy="584.5" r="0.5" fill="#D9D9D9" fill-opacity="0.3"/>
    <circle cx="1100.5" cy="305.5" r="0.5" fill="#D9D9D9" fill-opacity="0.3"/>
    <circle cx="953" cy="172" r="1" fill="#D9D9D9" fill-opacity="0.3"/>
    <ellipse cx="748.5" cy="124" rx="1.5" ry="2" fill="#D9D9D9" fill-opacity="0.3"/>
    <circle cx="1159" cy="144" r="1" fill="#D9D9D9" fill-opacity="0.3"/>
    <circle cx="431.5" cy="449.5" r="0.5" fill="#D9D9D9" fill-opacity="0.3"/>
    <ellipse cx="252.5" cy="370" rx="1.5" ry="2" fill="#D9D9D9" fill-opacity="0.3"/>
    <ellipse cx="218.5" cy="583" rx="0.5" ry="1" fill="#D9D9D9" fill-opacity="0.3"/>
    <circle cx="392.5" cy="305.5" r="1.5" fill="#D9D9D9" fill-opacity="0.3"/>
    <circle cx="244.5" cy="171.5" r="1.5" fill="#D9D9D9" fill-opacity="0.3"/>
    <circle cx="39" cy="122" r="1" fill="#D9D9D9" fill-opacity="0.3"/>
    <circle cx="124.5" cy="584.5" r="0.5" fill="#D9D9D9" fill-opacity="0.3"/>
    <circle cx="1148.5" cy="261.5" r="0.5" fill="#D9D9D9" fill-opacity="0.3"/>
    <circle cx="129.5" cy="672.5" r="0.5" fill="#D9D9D9" fill-opacity="0.3"/>
    <circle cx="738.5" cy="998.5" r="0.5" fill="#D9D9D9" fill-opacity="0.3"/>
    <circle cx="878.5" cy="933.5" r="0.5" fill="#D9D9D9" fill-opacity="0.3"/>
    <circle cx="731.5" cy="801.5" r="1.5" fill="#D9D9D9" fill-opacity="0.3"/>
    <circle cx="526.5" cy="752.5" r="1.5" fill="#D9D9D9" fill-opacity="0.3"/>
    <circle cx="691.5" cy="656.5" r="1.5" fill="#D9D9D9" fill-opacity="0.3"/>
    <circle cx="659" cy="1014" r="1" fill="#D9D9D9" fill-opacity="0.3"/>
    <circle cx="27" cy="617" r="1" fill="#D9D9D9" fill-opacity="0.3"/>
    <circle cx="698.5" cy="887.5" r="1.5" fill="#D9D9D9" fill-opacity="0.3"/>
    <circle cx="518.5" cy="807.5" r="1.5" fill="#D9D9D9" fill-opacity="0.3"/>
    <circle cx="484.5" cy="1020.5" r="0.5" fill="#D9D9D9" fill-opacity="0.3"/>
    <circle cx="658.5" cy="742.5" r="1.5" fill="#D9D9D9" fill-opacity="0.3"/>
    <circle cx="510.5" cy="608.5" r="1.5" fill="#D9D9D9" fill-opacity="0.3"/>
    <circle cx="390.5" cy="1021.5" r="0.5" fill="#D9D9D9" fill-opacity="0.3"/>
    <circle cx="1041.5" cy="990.5" r="0.5" fill="#D9D9D9" fill-opacity="0.3"/>
    <circle cx="861.5" cy="910.5" r="0.5" fill="#D9D9D9" fill-opacity="0.3"/>
    <circle cx="1001.5" cy="845.5" r="0.5" fill="#D9D9D9" fill-opacity="0.3"/>
    <circle cx="854" cy="712" r="1" fill="#D9D9D9" fill-opacity="0.3"/>
    <circle cx="649.5" cy="664.5" r="1.5" fill="#D9D9D9" fill-opacity="0.3"/>
    <circle cx="1060" cy="684" r="1" fill="#D9D9D9" fill-opacity="0.3"/>
    <circle cx="332.5" cy="989.5" r="0.5" fill="#D9D9D9" fill-opacity="0.3"/>
    <circle cx="153.5" cy="910.5" r="1.5" fill="#D9D9D9" fill-opacity="0.3"/>
    <circle cx="293.5" cy="845.5" r="1.5" fill="#D9D9D9" fill-opacity="0.3"/>
    <circle cx="145.5" cy="711.5" r="1.5" fill="#D9D9D9" fill-opacity="0.3"/>
    <circle cx="1049.5" cy="802.5" r="0.5" fill="#D9D9D9" fill-opacity="0.3"/>
    <circle cx="1060.5" cy="507.5" r="0.5" fill="#D9D9D9" fill-opacity="0.3"/>
    <circle cx="880.5" cy="427.5" r="0.5" fill="#D9D9D9" fill-opacity="0.3"/>
    <circle cx="847.5" cy="641.5" r="0.5" fill="#D9D9D9" fill-opacity="0.3"/>
    <circle cx="1020.5" cy="362.5" r="0.5" fill="#D9D9D9" fill-opacity="0.3"/>
    <ellipse cx="873.5" cy="230" rx="1.5" ry="2" fill="#D9D9D9" fill-opacity="0.3"/>
    <circle cx="668.5" cy="181.5" r="1.5" fill="#D9D9D9" fill-opacity="0.3"/>
    <circle cx="833.5" cy="84.5" r="1.5" fill="#D9D9D9" fill-opacity="0.3"/>
    <circle cx="753.5" cy="642.5" r="0.5" fill="#D9D9D9" fill-opacity="0.3"/>
    <ellipse cx="801" cy="442.5" rx="1" ry="1.5" fill="#D9D9D9" fill-opacity="0.3"/>
    <circle cx="169" cy="64" r="1" fill="#D9D9D9" fill-opacity="0.3"/>
    <circle cx="135.5" cy="277.5" r="0.5" fill="#D9D9D9" fill-opacity="0.3"/>
    <circle cx="89.5" cy="622.5" r="0.5" fill="#D9D9D9" fill-opacity="0.3"/>
    <circle cx="229.5" cy="557.5" r="0.5" fill="#D9D9D9" fill-opacity="0.3"/>
    <circle cx="81.5" cy="423.5" r="0.5" fill="#D9D9D9" fill-opacity="0.3"/>
    <circle cx="41.5" cy="278.5" r="0.5" fill="#D9D9D9" fill-opacity="0.3"/>
    <circle cx="840.5" cy="316.5" r="1.5" fill="#D9D9D9" fill-opacity="0.3"/>
    <circle cx="660.5" cy="236.5" r="1.5" fill="#D9D9D9" fill-opacity="0.3"/>
    <circle cx="626.5" cy="449.5" r="0.5" fill="#D9D9D9" fill-opacity="0.3"/>
    <circle cx="800.5" cy="171.5" r="1.5" fill="#D9D9D9" fill-opacity="0.3"/>
    <circle cx="652.5" cy="37.5" r="1.5" fill="#D9D9D9" fill-opacity="0.3"/>
    <circle cx="572.5" cy="595.5" r="0.5" fill="#D9D9D9" fill-opacity="0.3"/>
    <circle cx="367.5" cy="546.5" r="0.5" fill="#D9D9D9" fill-opacity="0.3"/>
    <circle cx="532.5" cy="450.5" r="0.5" fill="#D9D9D9" fill-opacity="0.3"/>
    <circle cx="1183.5" cy="419.5" r="0.5" fill="#D9D9D9" fill-opacity="0.3"/>
    <circle cx="1003.5" cy="339.5" r="0.5" fill="#D9D9D9" fill-opacity="0.3"/>
    <circle cx="970.5" cy="553.5" r="0.5" fill="#D9D9D9" fill-opacity="0.3"/>
    <circle cx="1143.5" cy="274.5" r="0.5" fill="#D9D9D9" fill-opacity="0.3"/>
    <circle cx="996" cy="141" r="1" fill="#D9D9D9" fill-opacity="0.3"/>
    <circle cx="791.5" cy="93.5" r="1.5" fill="#D9D9D9" fill-opacity="0.3"/>
    <circle cx="1202" cy="113" r="1" fill="#D9D9D9" fill-opacity="0.3"/>
    <circle cx="474.5" cy="418.5" r="0.5" fill="#D9D9D9" fill-opacity="0.3"/>
    <circle cx="295.5" cy="339.5" r="1.5" fill="#D9D9D9" fill-opacity="0.3"/>
    <circle cx="261.5" cy="552.5" r="0.5" fill="#D9D9D9" fill-opacity="0.3"/>
    <circle cx="435.5" cy="274.5" r="1.5" fill="#D9D9D9" fill-opacity="0.3"/>
    <circle cx="287.5" cy="140.5" r="1.5" fill="#D9D9D9" fill-opacity="0.3"/>
    <circle cx="82" cy="92" r="1" fill="#D9D9D9" fill-opacity="0.3"/>
    <circle cx="167.5" cy="553.5" r="0.5" fill="#D9D9D9" fill-opacity="0.3"/>
    <circle cx="1191.5" cy="231.5" r="0.5" fill="#D9D9D9" fill-opacity="0.3"/>
    <circle cx="172.5" cy="641.5" r="0.5" fill="#D9D9D9" fill-opacity="0.3"/>
    <ellipse cx="1315.5" cy="618" rx="0.5" ry="1" fill="#D9D9D9" fill-opacity="0.3"/>
    <circle cx="1135.5" cy="537.5" r="0.5" fill="#D9D9D9" fill-opacity="0.3"/>
    <circle cx="1102.5" cy="751.5" r="0.5" fill="#D9D9D9" fill-opacity="0.3"/>
    <circle cx="1275.5" cy="472.5" r="0.5" fill="#D9D9D9" fill-opacity="0.3"/>
    <circle cx="1128.5" cy="340.5" r="1.5" fill="#D9D9D9" fill-opacity="0.3"/>
    <circle cx="923.5" cy="291.5" r="1.5" fill="#D9D9D9" fill-opacity="0.3"/>
    <ellipse cx="1088.5" cy="195" rx="1.5" ry="2" fill="#D9D9D9" fill-opacity="0.3"/>
    <circle cx="1008.5" cy="752.5" r="0.5" fill="#D9D9D9" fill-opacity="0.3"/>
    <circle cx="1056" cy="553" r="1" fill="#D9D9D9" fill-opacity="0.3"/>
    <circle cx="424" cy="174" r="1" fill="#D9D9D9" fill-opacity="0.3"/>
    <circle cx="390.5" cy="387.5" r="0.5" fill="#D9D9D9" fill-opacity="0.3"/>
    <circle cx="344.5" cy="732.5" r="0.5" fill="#D9D9D9" fill-opacity="0.3"/>
    <circle cx="484.5" cy="667.5" r="0.5" fill="#D9D9D9" fill-opacity="0.3"/>
    <circle cx="336.5" cy="533.5" r="0.5" fill="#D9D9D9" fill-opacity="0.3"/>
    <circle cx="296.5" cy="388.5" r="0.5" fill="#D9D9D9" fill-opacity="0.3"/>
    <circle cx="1095.5" cy="426.5" r="1.5" fill="#D9D9D9" fill-opacity="0.3"/>
    <circle cx="915.5" cy="346.5" r="1.5" fill="#D9D9D9" fill-opacity="0.3"/>
    <circle cx="881.5" cy="559.5" r="0.5" fill="#D9D9D9" fill-opacity="0.3"/>
    <circle cx="1055.5" cy="281.5" r="1.5" fill="#D9D9D9" fill-opacity="0.3"/>
    <circle cx="907.5" cy="147.5" r="1.5" fill="#D9D9D9" fill-opacity="0.3"/>
    <circle cx="827.5" cy="705.5" r="0.5" fill="#D9D9D9" fill-opacity="0.3"/>
    <circle cx="622.5" cy="657.5" r="0.5" fill="#D9D9D9" fill-opacity="0.3"/>
    <circle cx="787.5" cy="560.5" r="0.5" fill="#D9D9D9" fill-opacity="0.3"/>
    <circle cx="1438.5" cy="529.5" r="0.5" fill="#D9D9D9" fill-opacity="0.3"/>
    <circle cx="1258.5" cy="449.5" r="0.5" fill="#D9D9D9" fill-opacity="0.3"/>
    <circle cx="1225.5" cy="663.5" r="0.5" fill="#D9D9D9" fill-opacity="0.3"/>
    <circle cx="1398.5" cy="384.5" r="0.5" fill="#D9D9D9" fill-opacity="0.3"/>
    <circle cx="1251" cy="251" r="1" fill="#D9D9D9" fill-opacity="0.3"/>
    <circle cx="1046.5" cy="203.5" r="1.5" fill="#D9D9D9" fill-opacity="0.3"/>
    <circle cx="1457" cy="223" r="1" fill="#D9D9D9" fill-opacity="0.3"/>
    <circle cx="729.5" cy="528.5" r="0.5" fill="#D9D9D9" fill-opacity="0.3"/>
    <circle cx="550.5" cy="449.5" r="1.5" fill="#D9D9D9" fill-opacity="0.3"/>
    <circle cx="516.5" cy="662.5" r="0.5" fill="#D9D9D9" fill-opacity="0.3"/>
    <circle cx="690.5" cy="384.5" r="1.5" fill="#D9D9D9" fill-opacity="0.3"/>
    <circle cx="542.5" cy="250.5" r="1.5" fill="#D9D9D9" fill-opacity="0.3"/>
    <circle cx="337" cy="202" r="1" fill="#D9D9D9" fill-opacity="0.3"/>
    <circle cx="422.5" cy="663.5" r="0.5" fill="#D9D9D9" fill-opacity="0.3"/>
    <circle cx="1446.5" cy="341.5" r="0.5" fill="#D9D9D9" fill-opacity="0.3"/>
    <circle cx="427.5" cy="751.5" r="0.5" fill="#D9D9D9" fill-opacity="0.3"/>
    <circle cx="1867.5" cy="833.5" r="0.5" fill="#D9D9D9" fill-opacity="0.3"/>
    <circle cx="1687.5" cy="752.5" r="0.5" fill="#D9D9D9" fill-opacity="0.3"/>
    <circle cx="1654.5" cy="966.5" r="0.5" fill="#D9D9D9" fill-opacity="0.3"/>
    <circle cx="1827.5" cy="687.5" r="0.5" fill="#D9D9D9" fill-opacity="0.3"/>
    <circle cx="1680.5" cy="555.5" r="1.5" fill="#D9D9D9" fill-opacity="0.3"/>
    <circle cx="1475.5" cy="506.5" r="1.5" fill="#D9D9D9" fill-opacity="0.3"/>
    <circle cx="1640.5" cy="410.5" r="1.5" fill="#D9D9D9" fill-opacity="0.3"/>
    <circle cx="1560.5" cy="967.5" r="0.5" fill="#D9D9D9" fill-opacity="0.3"/>
    <circle cx="1608" cy="768" r="1" fill="#D9D9D9" fill-opacity="0.3"/>
    <circle cx="976" cy="389" r="1" fill="#D9D9D9" fill-opacity="0.3"/>
    <circle cx="942.5" cy="602.5" r="0.5" fill="#D9D9D9" fill-opacity="0.3"/>
    <circle cx="896.5" cy="947.5" r="0.5" fill="#D9D9D9" fill-opacity="0.3"/>
    <circle cx="1036.5" cy="882.5" r="0.5" fill="#D9D9D9" fill-opacity="0.3"/>
    <circle cx="888.5" cy="748.5" r="0.5" fill="#D9D9D9" fill-opacity="0.3"/>
    <circle cx="848.5" cy="603.5" r="0.5" fill="#D9D9D9" fill-opacity="0.3"/>
    <circle cx="1647.5" cy="641.5" r="1.5" fill="#D9D9D9" fill-opacity="0.3"/>
    <circle cx="1467.5" cy="561.5" r="1.5" fill="#D9D9D9" fill-opacity="0.3"/>
    <circle cx="1433.5" cy="774.5" r="0.5" fill="#D9D9D9" fill-opacity="0.3"/>
    <circle cx="1607.5" cy="496.5" r="1.5" fill="#D9D9D9" fill-opacity="0.3"/>
    <circle cx="1459.5" cy="362.5" r="1.5" fill="#D9D9D9" fill-opacity="0.3"/>
    <circle cx="1379.5" cy="920.5" r="0.5" fill="#D9D9D9" fill-opacity="0.3"/>
    <circle cx="1174.5" cy="872.5" r="0.5" fill="#D9D9D9" fill-opacity="0.3"/>
    <circle cx="1339.5" cy="775.5" r="0.5" fill="#D9D9D9" fill-opacity="0.3"/>
    <circle cx="1810.5" cy="664.5" r="0.5" fill="#D9D9D9" fill-opacity="0.3"/>
    <circle cx="1777.5" cy="878.5" r="0.5" fill="#D9D9D9" fill-opacity="0.3"/>
    <circle cx="1803" cy="466" r="1" fill="#D9D9D9" fill-opacity="0.3"/>
    <circle cx="1598.5" cy="418.5" r="1.5" fill="#D9D9D9" fill-opacity="0.3"/>
    <circle cx="1281.5" cy="743.5" r="0.5" fill="#D9D9D9" fill-opacity="0.3"/>
    <circle cx="1102.5" cy="664.5" r="1.5" fill="#D9D9D9" fill-opacity="0.3"/>
    <circle cx="1068.5" cy="877.5" r="0.5" fill="#D9D9D9" fill-opacity="0.3"/>
    <circle cx="1242.5" cy="599.5" r="1.5" fill="#D9D9D9" fill-opacity="0.3"/>
    <circle cx="1094.5" cy="465.5" r="1.5" fill="#D9D9D9" fill-opacity="0.3"/>
    <circle cx="889" cy="417" r="1" fill="#D9D9D9" fill-opacity="0.3"/>
    <circle cx="974.5" cy="878.5" r="0.5" fill="#D9D9D9" fill-opacity="0.3"/>
    <circle cx="979.5" cy="966.5" r="0.5" fill="#D9D9D9" fill-opacity="0.3"/>
    <circle cx="839.5" cy="999.5" r="0.5" fill="#D9D9D9" fill-opacity="0.3"/>
    <circle cx="979.5" cy="934.5" r="0.5" fill="#D9D9D9" fill-opacity="0.3"/>
    <circle cx="832.5" cy="802.5" r="1.5" fill="#D9D9D9" fill-opacity="0.3"/>
    <circle cx="627.5" cy="753.5" r="1.5" fill="#D9D9D9" fill-opacity="0.3"/>
    <circle cx="792.5" cy="657.5" r="1.5" fill="#D9D9D9" fill-opacity="0.3"/>
    <circle cx="760" cy="1015" r="1" fill="#D9D9D9" fill-opacity="0.3"/>
    <circle cx="128" cy="636" r="1" fill="#D9D9D9" fill-opacity="0.3"/>
    <circle cx="94.5" cy="849.5" r="0.5" fill="#D9D9D9" fill-opacity="0.3"/>
    <circle cx="40.5" cy="995.5" r="0.5" fill="#D9D9D9" fill-opacity="0.3"/>
    <circle cx="0.5" cy="826.5" r="0.5" fill="#D9D9D9" fill-opacity="0.3"/>
    <circle cx="799.5" cy="888.5" r="1.5" fill="#D9D9D9" fill-opacity="0.3"/>
    <circle cx="619.5" cy="808.5" r="1.5" fill="#D9D9D9" fill-opacity="0.3"/>
    <circle cx="585.5" cy="1021.5" r="0.5" fill="#D9D9D9" fill-opacity="0.3"/>
    <circle cx="759.5" cy="743.5" r="1.5" fill="#D9D9D9" fill-opacity="0.3"/>
    <circle cx="611.5" cy="609.5" r="1.5" fill="#D9D9D9" fill-opacity="0.3"/>
    <circle cx="491.5" cy="1022.5" r="0.5" fill="#D9D9D9" fill-opacity="0.3"/>
    <circle cx="1142.5" cy="991.5" r="0.5" fill="#D9D9D9" fill-opacity="0.3"/>
    <circle cx="962.5" cy="911.5" r="0.5" fill="#D9D9D9" fill-opacity="0.3"/>
    <circle cx="1102.5" cy="846.5" r="0.5" fill="#D9D9D9" fill-opacity="0.3"/>
    <circle cx="955" cy="713" r="1" fill="#D9D9D9" fill-opacity="0.3"/>
    <circle cx="750.5" cy="665.5" r="1.5" fill="#D9D9D9" fill-opacity="0.3"/>
    <circle cx="1161" cy="685" r="1" fill="#D9D9D9" fill-opacity="0.3"/>
    <circle cx="433.5" cy="990.5" r="0.5" fill="#D9D9D9" fill-opacity="0.3"/>
    <circle cx="254.5" cy="911.5" r="1.5" fill="#D9D9D9" fill-opacity="0.3"/>
    <circle cx="394.5" cy="846.5" r="1.5" fill="#D9D9D9" fill-opacity="0.3"/>
    <circle cx="246.5" cy="712.5" r="1.5" fill="#D9D9D9" fill-opacity="0.3"/>
    <circle cx="41" cy="664" r="1" fill="#D9D9D9" fill-opacity="0.3"/>
    <circle cx="1150.5" cy="803.5" r="0.5" fill="#D9D9D9" fill-opacity="0.3"/>
    <circle cx="929.5" cy="561.5" r="0.5" fill="#D9D9D9" fill-opacity="0.3"/>
    <circle cx="749.5" cy="481.5" r="0.5" fill="#D9D9D9" fill-opacity="0.3"/>
    <circle cx="716.5" cy="695.5" r="0.5" fill="#D9D9D9" fill-opacity="0.3"/>
    <circle cx="889.5" cy="416.5" r="0.5" fill="#D9D9D9" fill-opacity="0.3"/>
    <circle cx="742.5" cy="283.5" r="1.5" fill="#D9D9D9" fill-opacity="0.3"/>
    <circle cx="537.5" cy="235.5" r="1.5" fill="#D9D9D9" fill-opacity="0.3"/>
    <circle cx="702.5" cy="138.5" r="1.5" fill="#D9D9D9" fill-opacity="0.3"/>
    <circle cx="622.5" cy="696.5" r="0.5" fill="#D9D9D9" fill-opacity="0.3"/>
    <circle cx="670" cy="496" r="1" fill="#D9D9D9" fill-opacity="0.3"/>
    <circle cx="38" cy="117" r="1" fill="#D9D9D9" fill-opacity="0.3"/>
    <circle cx="4.5" cy="321.5" r="0.5" fill="#D9D9D9" fill-opacity="0.3"/>
    <circle cx="98.5" cy="610.5" r="0.5" fill="#D9D9D9" fill-opacity="0.3"/>
    <ellipse cx="709.5" cy="370" rx="1.5" ry="2" fill="#D9D9D9" fill-opacity="0.3"/>
    <circle cx="529.5" cy="289.5" r="1.5" fill="#D9D9D9" fill-opacity="0.3"/>
    <circle cx="495.5" cy="502.5" r="0.5" fill="#D9D9D9" fill-opacity="0.3"/>
    <circle cx="669.5" cy="224.5" r="1.5" fill="#D9D9D9" fill-opacity="0.3"/>
    <circle cx="521.5" cy="91.5" r="1.5" fill="#D9D9D9" fill-opacity="0.3"/>
    <circle cx="441.5" cy="648.5" r="0.5" fill="#D9D9D9" fill-opacity="0.3"/>
    <circle cx="236.5" cy="600.5" r="0.5" fill="#D9D9D9" fill-opacity="0.3"/>
    <circle cx="401.5" cy="503.5" r="0.5" fill="#D9D9D9" fill-opacity="0.3"/>
    <circle cx="1052.5" cy="472.5" r="0.5" fill="#D9D9D9" fill-opacity="0.3"/>
    <circle cx="872.5" cy="392.5" r="0.5" fill="#D9D9D9" fill-opacity="0.3"/>
    <circle cx="839.5" cy="606.5" r="0.5" fill="#D9D9D9" fill-opacity="0.3"/>
    <circle cx="1012.5" cy="327.5" r="0.5" fill="#D9D9D9" fill-opacity="0.3"/>
    <ellipse cx="865" cy="194.5" rx="1" ry="1.5" fill="#D9D9D9" fill-opacity="0.3"/>
    <circle cx="660.5" cy="146.5" r="1.5" fill="#D9D9D9" fill-opacity="0.3"/>
    <circle cx="1071" cy="167" r="1" fill="#D9D9D9" fill-opacity="0.3"/>
    <circle cx="343.5" cy="471.5" r="0.5" fill="#D9D9D9" fill-opacity="0.3"/>
    <circle cx="164.5" cy="392.5" r="1.5" fill="#D9D9D9" fill-opacity="0.3"/>
    <circle cx="130.5" cy="605.5" r="0.5" fill="#D9D9D9" fill-opacity="0.3"/>
    <circle cx="304.5" cy="327.5" r="1.5" fill="#D9D9D9" fill-opacity="0.3"/>
    <ellipse cx="156.5" cy="194" rx="1.5" ry="2" fill="#D9D9D9" fill-opacity="0.3"/>
    <circle cx="36.5" cy="606.5" r="0.5" fill="#D9D9D9" fill-opacity="0.3"/>
    <circle cx="1060.5" cy="284.5" r="0.5" fill="#D9D9D9" fill-opacity="0.3"/>
    <circle cx="41.5" cy="695.5" r="0.5" fill="#D9D9D9" fill-opacity="0.3"/>
</svg>
