<svg width="1920" height="1080" viewBox="0 0 1920 1080" fill="none" xmlns="http://www.w3.org/2000/svg">
    <rect width="1920" height="1080" fill="#D9D9D9"/>
    <circle cx="457.5" cy="709.5" r="17.5" fill="#707070" fill-opacity="0.3"/>
    <circle cx="811.5" cy="778.5" r="17.5" fill="#707070" fill-opacity="0.3"/>
    <circle cx="1193.5" cy="727.5" r="17.5" fill="#707070" fill-opacity="0.3"/>
    <circle cx="1020.5" cy="1019.5" r="17.5" fill="#707070" fill-opacity="0.3"/>
    <circle cx="466.5" cy="1002.5" r="17.5" fill="#707070" fill-opacity="0.3"/>
    <circle cx="1089.5" cy="107.5" r="17.5" fill="#707070" fill-opacity="0.3"/>
    <circle cx="1388.5" cy="108.5" r="17.5" fill="#707070" fill-opacity="0.3"/>
    <circle cx="1825.5" cy="125.5" r="17.5" fill="#707070" fill-opacity="0.3"/>
    <circle cx="1652.5" cy="417.5" r="17.5" fill="#707070" fill-opacity="0.3"/>
    <circle cx="1098.5" cy="400.5" r="17.5" fill="#707070" fill-opacity="0.3"/>
    <circle cx="141.5" cy="245.5" r="17.5" fill="#707070" fill-opacity="0.3"/>
    <circle cx="376.5" cy="296.5" r="17.5" fill="#707070" fill-opacity="0.3"/>
    <circle cx="877.5" cy="263.5" r="17.5" fill="#707070" fill-opacity="0.3"/>
    <circle cx="1635.5" cy="838.5" r="17.5" fill="#707070" fill-opacity="0.3"/>
    <circle cx="150.5" cy="538.5" r="17.5" fill="#707070" fill-opacity="0.3"/>
    <circle cx="228.5" cy="803.5" r="7.5" fill="#707070" fill-opacity="0.3"/>
    <circle cx="936.5" cy="540.5" r="7.5" fill="#707070" fill-opacity="0.3"/>
    <circle cx="756.5" cy="462.5" r="7.5" fill="#707070" fill-opacity="0.3"/>
    <circle cx="723.5" cy="670.5" r="7.5" fill="#707070" fill-opacity="0.3"/>
    <circle cx="896.5" cy="399.5" r="7.5" fill="#707070" fill-opacity="0.3"/>
    <circle cx="338.5" cy="128.5" r="7.5" fill="#707070" fill-opacity="0.3"/>
    <circle cx="748.5" cy="269.5" r="7.5" fill="#707070" fill-opacity="0.3"/>
    <circle cx="464.5" cy="478.5" r="7.5" fill="#707070" fill-opacity="0.3"/>
    <circle cx="543.5" cy="222.5" r="7.5" fill="#707070" fill-opacity="0.3"/>
    <circle cx="708.5" cy="128.5" r="7.5" fill="#707070" fill-opacity="0.3"/>
    <circle cx="1361.5" cy="655.5" r="7.5" fill="#707070" fill-opacity="0.3"/>
    <circle cx="1771.5" cy="796.5" r="7.5" fill="#707070" fill-opacity="0.3"/>
    <circle cx="1396.5" cy="830.5" r="7.5" fill="#707070" fill-opacity="0.3"/>
    <circle cx="1566.5" cy="749.5" r="7.5" fill="#707070" fill-opacity="0.3"/>
    <circle cx="1731.5" cy="655.5" r="7.5" fill="#707070" fill-opacity="0.3"/>
    <circle cx="1300.5" cy="209.5" r="7.5" fill="#707070" fill-opacity="0.3"/>
    <circle cx="1710.5" cy="350.5" r="7.5" fill="#707070" fill-opacity="0.3"/>
    <circle cx="1335.5" cy="384.5" r="7.5" fill="#707070" fill-opacity="0.3"/>
    <circle cx="1505.5" cy="303.5" r="7.5" fill="#707070" fill-opacity="0.3"/>
    <circle cx="1670.5" cy="209.5" r="7.5" fill="#707070" fill-opacity="0.3"/>
</svg>
